# xmcd CD database file
#
# Track frame offsets:
#	150
#	24178
#	52524
#
# Disc length: 1087 seconds
#
# Revision: 0
# Processed by: cddbd v1.4PL0 Copyright (c) Steve Scherf et al.
# Submitted via: CDex 1.40Release
#
DISCID=10043d03
DTITLE=Steve Ahola - Snappin' the Strings
DYEAR=2000
DGENRE=Blues
TTITLE0=b/w
TTITLE1=Sleazy Blues in E
TTITLE2=Slow Blues in A minor
EXTD=YEAR: 2000 ID3G: 0
EXTT0=
EXTT1=
EXTT2=
PLAYORDER=
